<?xml version="1.0" encoding="utf-8"?>
<!-- Generator: Adobe Illustrator 28.0.0, SVG Export Plug-In . SVG Version: 6.00 Build 0)  -->
<svg version="1.1" id="Слой_1" xmlns="http://www.w3.org/2000/svg" xmlns:xlink="http://www.w3.org/1999/xlink" x="0px" y="0px"
	 viewBox="0 0 1024 878" style="enable-background:new 0 0 1024 878;" xml:space="preserve">
<style type="text/css">
	.st0{fill:#F2A963;}
	.st1{fill:#B66429;}
</style>
<g id="Layer_4">
	<g>
		<g>
			<path class="st0" d="M367.05,367.9c0.4,0,0.9-0.7,1.3-0.7C367.95,367.2,367.45,367.9,367.05,367.9L367.05,367.9z"/>
		</g>
	</g>
	<path class="st0" d="M412.57,418.4c0-1.6-0.3-2.9-0.7-4.3c0-0.1,0.1-0.1,0.1-0.3c2.1-4.3,1-8.5-0.9-12.5c-0.1-1.3-0.4-2.5-0.9-3.2
		c-3.2-7.6-5.4-10.6-6.8-15.9c-1-3.7-2.9-4.4-4.6-3.4c0-0.1-0.1-0.3-0.1-0.4c-0.1-0.1-0.1-0.3-0.3-0.4c-0.3-1.2-0.9-2.3-1.9-3.1
		c-0.4-0.1-0.7-0.3-1-0.1c-2.5-2.1-5.3-3.7-7.9-5.4c-2.3-1.2-4.6-3.1-6.9-4.4c-0.7-0.7-1.8-1.3-2.9-1.5c0,0,0,0-0.1,0
		c-2.6-2.6-6.8-6.2-9.51-4.1c-1-0.4-2.1-0.7-3.1-1.2c-2.1-1-4.1-1.8-6.3-1.8l0,0c-0.4,0-1,0.1-1.5,0.6c-0.4,0.4-0.9,1-1.2,1.6
		c-0.3,0-0.7,0.1-1,0.3c-0.7,0.4-1.2,1.2-1.6,1.8c-2.5-0.7-5.6-2.2-7.6-0.1c-0.3,0.4-0.6,1-0.9,1.5c-1.2,0.1-2.3,0.3-3.7,0.6
		c-0.4,0-0.7,0.1-1.2,0.1c-1.8,0.3-3.7,0.6-5.4,1c-2.3-0.3-4.7-0.6-7,0.1c-1.3,0.9-2.2,2.2-2.8,3.7c-0.3,0.3-0.6,0.6-0.9,0.9
		c-0.9-0.1-1.9,0.3-3.1,1.5c-3.2,2.9-6.3,5.9-9.51,8.8c-1.3-0.6-2.6,0.4-3.4,1.9c-0.3,0.7-0.6,1.5-0.7,2.2c-0.1,0.3-0.4,0.6-0.6,0.9
		c-1-0.4-2.2,0.1-3.4,2.2c-0.9,2.1-1.3,4.3-1.6,6.3c-0.3,0.6-0.6,1.2-0.9,1.5c-0.7,1.3-1.3,2.6-2.1,4c-1-0.3-1.9,0.6-2.5,1.3
		c-1.3,1.3-2.2,3.1-2.5,5c-0.9,7.5-0.1,15.3,1.3,22.8c0.4,1.3,0.7,2.8,1,4.3c-0.1,1,0,2.2,0.1,3.4c-0.4,2.5,0,5.4,0.6,7.8
		c1.6,4.3,3.7,8.4,5.9,12.3c0.7,2.1,1.5,4.1,2.3,6c1.2,2.2,2.2,3.1,3.2,3.1c1.2,1.8,2.3,3.7,4,4.8c0.6,0.3,1.2,0.3,1.6,0.1
		c0,0,0.1,0,0.1,0.1c1,1,2.1,2.1,3.1,2.9v0.1c1.3,1.5,2.9,2.8,4.4,4.1c1.9,1.5,6.8,5.6,9.51,4.8c0.1,0,0.1,0.1,0.3,0.1
		c2.3,1.3,5.6,5.1,8.1,2.5c0.1-0.1,0.1-0.3,0.3-0.4c1.6,0.1,3.2,0.6,4.8,0.9c3.4,1,6.8,1.8,10.31,1.9c0.4,0.6,0.9,1.2,1.5,1.6
		c1.8,0.9,3.7-0.9,5.1-1.6c1.3-0.9,2.8-1.8,4.4-2.9c0.3,0.4,0.4,0.9,0.7,1.3c2.9,3.5,9.71-3.4,12.21-5.1c2.1-1.9,4.3-3.7,6.3-5.6
		c1.9,1,4.1-0.4,6.3-2.8c2.5,5.4,6.2,1.6,8.7-3.4c1.3-3.1,2.5-6.3,3.4-9.5c0.1-0.1,0.3-0.1,0.3-0.3c4.7-5.7,5.3-13.2,6.3-20.4
		c0.4-1.8,0.9-3.4,1-5.1v-0.1c1.2-3.8,2.3-7.6,1.6-11.6C412.87,419.6,412.77,419,412.57,418.4z M395.36,425.4L395.36,425.4
		c-1.9,5.6-3.4,11.2-4.6,16.7c0.1-0.9,0.4-2.1,0.1-0.4c-0.3,1.2-0.6,2.3-0.6,3.7c-0.6,0.7-1,1.6-1.5,2.5c-0.4,0.4-0.7,0.7-1.2,1.2
		c-6.3,2.3-11.51,7.2-15.41,12.8c-0.1,0-0.3,0-0.4,0c-3.2,0-6.3,1.2-9.41,1.8c-1,0.1-2.1,0.4-2.9,0.6c-0.4-0.1-0.7-0.3-1.2-0.4
		c-3.5-1.2-7.3-1.6-11.01-1.3c-1.8,0-3.2,0.6-4.3,1.8c-3.8-1.3-7.8-2.5-11.31-2.5c-2.3-1.5-4.7-3.1-7.2-4.4
		c-0.4-0.3-0.9-0.6-1.5-0.7c-1-2.1-2.5-4.1-3.8-6c-0.6-0.9-1.2-1.8-1.8-2.6c-0.1-0.3-0.4-0.6-0.6-0.9c-0.1-0.1-0.1-0.3-0.3-0.4
		c-0.3-0.6-0.7-1.2-1-1.8c-1.9-3.2-3.2-4.8-4.1-6.2c-0.1-0.4-0.4-0.7-0.6-1.3c-0.3-0.7-0.6-1.8-1-2.3c-0.1-0.6-0.3-1-0.4-1.6v-0.1
		c0-3.2-0.4-6.3-0.9-9.5c0-0.3,0-0.6,0.1-0.9c1-3.2,1.9-6.5,2.5-9.8c0.3,0.7,0.7,1.5,1.2,2.2c3.8,4,6.3-3.5,7.6-6.2
		c2.3-4.8,4.6-9.7,6.6-14.5c1.8-4.3,4.6-8.2,5.6-12.8c3.4,0.3,8.1-1.3,11.31-2.2c0.9,0,1.6,0,2.5,0c1.3,0,2.5,0.1,3.8,0.1
		c1.9,0,3.7,0,5.6,0c0.4,0,0.7,0,1.2,0c0,0,0,0,0.1,0c0.6,0,1.2,0,1.6-0.4c0.4-0.3,0.9-0.6,1.2-1.2c2.2,1,5,2.1,6.5,0
		c1.9,0.4,3.7,0.7,5.6,0.9c0.3,0,0.6,0.1,0.7,0.1c0,0,0,0,0.1,0c0.3,0,0.6,0,0.9,0.1c0.6,0.4,1.2,0.9,1.8,1
		c-0.4,3.8,1.3,7.5,4.7,9.2c1.6,0.9,3.2,2.1,4.8,3.1c1.3,1.6,2.8,3.1,4.1,4.6c0.6,0.7,1.3,1.5,2.1,2.1c0.7,0.3,1.5,0.1,1.9-0.3
		c0.1,4.8,1.6,9.8,3.2,14.4c0.3,0.9,0.7,1.8,1.2,2.8C395.96,418.7,395.56,422.4,395.36,425.4z"/>
	<path class="st0" d="M519.83,519.6c-0.1-2.1-0.3-4.1-0.4-6.2c0-0.4-0.1-1-0.1-1.5c0-0.1,0-0.4,0-0.6c0-0.9,0-1.9,0-2.8l0,0
		c0-0.9-0.1-1.6-0.3-2.5c0.4-2.2,0.4-4.6,0-6.2c-1-4.4-4-8.2-6.2-12c-0.7-1-1.6-2.3-2.5-3.7c-0.4-1-1-2.1-1.6-2.9
		c-0.4-0.4-0.9-0.9-1.3-1c-0.4-0.7-0.9-1.6-1.5-2.3c-0.7-1-2.1-1.2-2.9-0.6c-0.3-0.6-0.6-1.2-0.9-1.8c-1-0.9-1.9-1-2.6-0.7
		c-0.1-0.1-0.3-0.4-0.4-0.6c-0.6-1.5-1.5-2.6-2.6-3.5c-2.8-1.6-6.9-2.9-11.01-3.4c-0.3-0.3-0.4-0.4-0.7-0.7
		c-0.9-0.4-1.8-0.7-2.8-0.9c-0.9-1-2.5-1-3.8-1c-1,0-2.1,0-3.1,0.1c-0.3-0.1-0.6-0.3-1-0.3c-5-0.9-9.71,1.9-13.71,4.6
		c-0.6,0.3-1.2,0.7-1.6,1.2c-1,0.1-2.2,0.7-3.5,1.8c-0.4-0.6-1.2-0.9-1.9-1.2c-0.3,0-0.6,0.1-0.9,0.3c-0.3-0.1-0.7-0.3-1.2-0.4
		c-1.3,0-2.1,1.3-2.9,2.1c-1.5,1.6-2.8,3.4-4.1,5c-0.4,0.4-0.7,1-1.2,1.5c-2.1-0.3-3.8,3.1-5.1,5.9c-1,1.6-1.9,3.2-2.9,4.8
		c-0.1,0.1-0.1,0.4-0.3,0.6l-0.1,0.1c-0.6,0.3-1.2,1-1.6,2.1v0.1c0,0.1-0.1,0.3-0.1,0.4v0.1c-0.6,0.9-1.5,1.9-2.5,3.5
		c-1.2,2.2-1.5,4.7-1.2,7.2c-0.7,2.6-1.2,5.4-1.2,8.2c0,0.4,0,0.7,0,1.2c-2.8,0.7-4,6.8-2.6,12.3c0.3,1.2,0.9,2.8,1.8,4.8
		c-0.1,3.8,1.2,7.5,3.7,10.4c0.1,0.1,0,0-0.3-0.4c-0.1-0.1-0.1-0.3-0.3-0.4c1.3,2.1,2.8,4.1,4.1,6.2c0.1,0.3,0.3,0.4,0.4,0.7v0.1
		c0.1,0.1,0.1,0.1,0.3,0.3c0.1,0.3,0.1,0.6,0.3,0.9c0.3,0.9,0.6,1.6,1.2,2.3c0,0,0,0,0.1,0.1c0.7,0.7,1.3,1.5,2.1,2.2
		c1.5,2.6,4.4,6.3,6.9,7.3c0.3,0.6,0.7,1.3,1.2,1.9c3.2,4.4,8.5,8.4,11.71,5.9c0.7,0.7,1.5,1.5,2.3,2.1c2.8,2.2,6.8,4.3,10.31,2.9
		c0.3-0.3,0.6-0.6,0.9-0.9c0.9,0,1.8,0,2.6-0.3c0.1-0.1,0.3-0.3,0.6-0.4c0.4,0,0.9,0,1.3,0c0.6,0.1,1.3,0.4,2.2,0.6
		c1.9,0.4,3.8,1,5.9,1.3l0,0c0.4,0.1,0.9,0.3,1.3,0.3c0.1,0,0.4,0.1,0.6,0.1v-0.1c2.1-0.1,3.2-2.3,3.5-4.8c0.4-0.3,0.7-0.7,1-1.2
		c0.1,0,0.3,0.1,0.4,0.3c1.5,0.4,2.6-0.7,3.8-1.9c0.1,0,0.1,0,0.3-0.1c1.8-1.3,3.4-2.8,4.8-4.3l0.1-0.1c3.1-2.5,6.5-5.3,8.5-8.5
		c0.1-0.1,0.3-0.3,0.4-0.3c1.8-1.6,3.2-3.4,3.7-5.6c0.4-0.4,0.7-0.9,1.2-1.3c1.9-2.2,2.9-5.6,2.6-8.7c0.3-0.7,0.6-1.6,0.7-2.5
		c0.3-0.1,0.7-0.4,1-0.9c1.3-1.9,1.8-4,1.8-6.2C520.53,524.8,520.23,522.2,519.83,519.6z M439.79,519.4c0.3-3.2,0.4-6.5,0.4-9.7
		c0.1-2.3,0.4-4.8,0.4-7.3c0.1-0.1,0.3-0.3,0.4-0.4c1.6-1.8,2.9-3.4,4.3-4.8c0.9,1.2,2.2,1.9,3.8,0.7c2.8-2.2,5.3-4.7,7.5-7.5
		c2.2-0.1,4.8-1.6,7.2-3.2c0.4,0,0.9,0,1.5,0c1.6-0.3,3.2-0.9,4.7-1.6c0.7,0.4,1.5,0.7,2.3,0.9c2.8,0.4,5.7,0.3,8.1-0.7
		c1,1.3,2.3,2.5,4,3.5c3.1,2.3,7.2,5.1,11.21,4.8c0.9,0.6,1.9,1,3.1,1.2c0.7,1.2,1.5,2.5,2.6,3.2c0.3,0,0.4,0,0.7,0
		c0.9,1.5,1.9,2.8,2.8,4.1c0.4,0.7,0.9,1.6,1.3,2.3c-1.2,4-0.1,10.4-0.3,13.4c0,0.3,0,2.5,0.1,2.3c0,0.1,0,0.1,0,0.3
		c0,0.1,0,0.3,0,0.3c0,0.4,0,0.9,0,1.3c-0.1,0.1-0.1,0.3-0.3,0.4c-5.4,8.2-5.9,12.8-9.11,19.1c0,0.1,0,0.1,0,0.3
		c-1.5,1.2-2.8,2.5-4.1,3.8c-0.1,0-0.3,0-0.4,0.1l0,0l0,0c-2.5,0.6-6.2,3.2-9.21,6c-0.6,0.3-1.3,0.6-1.9,0.9
		c-4-0.6-7.9-1.5-11.91-0.7c-0.1,0.1-0.3,0.3-0.4,0.3c-0.1-0.1-0.4-0.1-0.6-0.3h-0.1c-1.3-1-2.8-2.1-4.4-2.8
		c-3.8-2.6-8.7-5.7-12.51-6c-0.6-0.4-1.2-0.9-1.8-1.3c-1.5-1-3.1-2.2-4.7-3.1c0-0.7,0-1.5-0.1-2.2c-1.3-5.6-2.5-4.3-4.4-9.1
		c0-0.1-0.1-0.1-0.1-0.3c0.4-2.6,0.1-5.4,0.3-8.2C439.89,517.5,439.89,517.2,439.79,519.4z"/>
	<path class="st0" d="M633.79,505.3c-0.7-2.8-3.7-8.2-6.6-9.2c0.4-0.9,0.4-2.2,0.4-3.1c0-2.1-1.3-3.8-3.1-4.6
		c-1.2-0.6-2.3-1.2-3.4-1.9c-1.5-2.2-3.7-3.8-5.9-5.3c-1-0.6-1.9-1.2-2.9-1.8c-0.1-0.1-0.4-0.4-0.6-0.6c-0.4-0.1-0.9-0.4-1.3-0.6
		c-2.2-1.2-4.7-2.1-7.2-2.3c-0.1,0-0.1,0-0.3,0.1c-0.6-0.1-1.2-0.3-1.8-0.1c-0.1,0-0.1,0-0.3-0.1c-1,0.1-1.9,0.3-2.8,0.6
		c-3.8-0.1-7.5,0.3-9.81,2.1c-0.4-0.4-1-0.9-1.8-1c-1,0.1-2.1,0.4-3.1,0.9c-3.1-2.6-8.7,3.2-11.91,6.8c-1.8,1-3.5,2.2-5.1,3.4l0,0
		c-0.3,0.1-0.6,0.3-0.9,0.6c-2.2,1.5-5,2.9-5.6,5.7c-0.1,0.3-0.1,0.7-0.3,1c-0.6,0.3-1,0.9-1.6,1.9c-1,2.3-1.3,5-1.3,7.6l0,0
		c-1.9,4.8-1.2,10.3-1,15.4l0,0c0,0.3,0,0.6-0.1,0.9c-0.4,3.2,0.6,6.2,2.2,8.8c1.9,5.9,5,11.5,10.01,13.4c0.1,0,0.3-0.1,0.4-0.1
		c0.7,0.6,1.3,1,2.1,1.6c0.1,0.1,0.4,0.4,0.6,0.6c1.6,1.3,3.8,4.3,5.9,3.5c0.1,0.1,0.3,0.4,0.4,0.6c1.6,1.6,4,1.5,6.2,1.5
		c0.3,0.1,0.7,0.1,1,0.3c0.1,0.1,0.1,0.3,0.3,0.4c0.3,0.4,0.7,0.7,1.3,0.9c0.6,0.9,1.5,1.6,2.6,1.9c4.3,0.4,8.8,0.4,12.51-1.8
		c1.3-0.6,2.8-1.5,4.1-2.3c0.4,0.3,1,0.4,1.8,0.4c3.8,0.1,7.2-2.2,10.11-4.6c3.1-2.3,5.7-5.3,7.2-9c0.3-0.4,0.6-0.9,1-1.3
		c1.2-1.8,2.3-3.5,3.2-5.4c1-0.6,1.9-1.6,2.5-2.9c0.3,0,0.4-0.1,0.7-0.3c2.6-2.1,3.2-5.7,3.5-9
		C635.29,514.7,635.39,509.9,633.79,505.3z M615.28,526c-0.3,0.6-0.7,1-1,1.6c-2.8,1.3-5.6,3.1-7.6,5.4c-0.4,0.3-0.9,0.7-1.3,1
		c-1.9-0.4-3.8-0.1-5.7,0.6c-1.2,0.1-2.5,0.3-3.8,0.7c-0.3,0-0.7,0.1-1,0.1c-1.9,0-4,0-5.9,0.3c-1-2.1-2.5-3.8-4.3-5.1
		c-3.2-2.8-7-5.4-11.21-6.6v-0.1c0-3.5-0.6-7-1.6-10.4c-0.3-1.9-0.7-3.7-1-5.6c0.6-1.2,1-2.2,1.5-3.4c0.4-0.9,0.9-1.9,1.2-2.9
		c0-0.1,0-0.1,0.1-0.3c1.6-0.9,3.2-1.9,4.8-2.8c2.8-1.9,5.9-3.5,8.4-5.9c0.4-0.1,1-0.3,1.5-0.4c1.6,0.6,3.7,0.3,6.3-0.4
		c1-0.4,2.2-0.9,3.4-1.3c0.4,0,0.7,0,1.2,0.1c1.3,1.3,2.9,2.1,4.7,2.6c0.3,0.7,0.6,1.5,1,2.1c1.6,1.6,3.8,2.6,5.7,4
		c1.9,1.3,3.7,2.8,5.4,4.1c0.3,0.1,0.6,0.4,0.9,0.6c0.1,1.6,0.4,3.2,0.6,4.3c0.6,2.2,1.6,4.7,2.8,6.6
		C617.38,517.9,615.78,521.9,615.28,526z"/>
	<path class="st0" d="M382.75,240.4c-0.7-3.1-3.4-8.4-5.7-2.9c-0.1,0.6-0.3,1.2-0.4,1.8c0-0.1,0-0.1,0-0.3c0.1-1.3-0.1-2.6-0.7-3.8
		c-0.7-4.8-2.3-9.4-4.1-13.9c-0.3-1.2-0.6-2.3-0.9-3.4c-0.3-1.6-0.9-3.2-1.9-4.6c0-0.3-0.1-0.6-0.3-1.2c-0.1-0.7-0.6-1.6-1-2.2
		c-0.6-2.6-1.8-5-4.1-4.4c-0.1-0.1-0.1-0.3-0.3-0.4c-1.3-1.3-2.3-1.6-3.2-1.5c-0.7-0.9-1.6-1.8-2.5-2.6c-3.5-4-8.1-7.2-12.31-8.8
		c-2.2-1.2-4.6-2.1-7-2.2c-4-1.6-8.4-2.2-12.61-2.2c-3.4-0.3-7,0.6-10.01,2.6c-1.6,0.1-3.1,0.4-4.6,1c-1.5,0-2.9,0-4.4,0
		c-1.9,0.4-3.1,1.8-3.8,3.5c-0.6,0.1-1.2,0.4-1.8,0.7c-0.7-1.9-1.9-3.4-4-2.6c-2.8,2.1-5.4,4.3-7.9,6.6c-0.6-0.9-1.3-1.6-2.3-1.8
		c-1,0-1.6,0.7-2.3,1.5c-0.3,0.3-0.4,0.6-0.7,0.9c-0.4,0.1-0.7,0.3-1,0.6c-0.6,0.4-0.9,1-1.3,1.6c-0.1,0.4-0.4,0.7-0.6,1.2
		c-0.3-0.7-0.7-1.5-1.2-2.2c-2.5-2.6-4.1,0.4-5.4,2.5c-2.1,2.9-4.3,5.9-6.3,9c-4,6.5-7.6,13.2-9.11,20.6c-0.1,0.4-0.1,0.9-0.1,1.3
		c-0.1,0.3-0.1,0.4-0.1,0.7c-0.4,0.4-0.7,0.9-1.2,1.6c-0.1,0.3-0.3,0.7-0.4,1c0,0,0,0.1-0.1,0.1c-0.1,0.3-0.4,0.6-0.6,0.9l0,0
		c-0.1,0.3-0.3,0.6-0.4,0.9c0,0.1,0,0.1-0.1,0.3c0,0.1-0.1,0.4-0.1,0.6c-0.4,1.6-0.6,3.4-0.6,5v0.1c-3.2-0.9-4.8,4.4-4.8,7.9
		c-0.1,3.7,1.5,7,2.2,10.4c1.2,5.6,3.1,11.2,5.7,16.3c1.3,2.5,2.5,5.4,4.8,7.2c-0.1,1.3-0.1,2.8,0,3.8c0.3,1.6,0.6,3.1,1.6,4.4
		c0.7,0.7,1.5,1.2,2.3,1.8c2.1,1.8,4.1,3.7,6.2,5.4c2.2,2.2,4.6,4.4,7.3,6.5c1,0.9,1.9,1.9,3.2,2.2c0.1,0,0.3,0,0.4,0
		c0.9,0.4,1.6,0.9,2.5,1.2c0.4,2.1,1.5,3.8,3.4,4.1c1,0.1,2.2,0.1,3.5,0.3c4.3,0.4,8.5,1.5,12.81,2.3c0.3,1.8,0.9,3.4,1.8,4.6
		c0.4,0.6,1.2,0.9,1.9,1l0,0h0.1c0.3,0,0.6,0,0.9,0c2.3,0,4.6-0.4,6.8-1c0.3,0,0.7-0.1,1-0.3c4.1-0.6,8.2-1.2,12.31-2.1
		c2.1,0,3.7-0.4,5-1c1.2-0.3,2.2-0.6,3.4-0.9c2.8-0.9,5.6-2.3,7.8-4.4c1.2,1.6,3.2,1.8,4.8-0.3c1.6-2.3,3.2-4.8,4.8-7.3
		c1.8-0.3,3.5-2.6,4.6-4c1.8-2.2,3.4-4.4,5-6.6c2.5-3.4,5.4-6.8,7-10.6c0.3-0.3,0.4-0.7,0.7-1c1.5-2.6,2.3-8.5,0.7-11.9
		c0.1-0.3,0.3-0.7,0.3-1s0.1-0.6,0.1-0.7c1.5-0.4,2.2-2.2,2.6-4c0,0,0,0,0.1,0c0.1-0.1,0.3-0.3,0.4-0.4l0,0c0-0.1,0.1-0.1,0.1-0.3
		c0.1-0.3,0.1-0.6,0.1-1l0,0c1.5-0.1,2.8-1.9,3.1-4.6v-0.1c1.3-3.1,1.2-6.6,1.5-9.8C383.45,248.2,383.75,244.3,382.75,240.4z
		 M363.84,267.9c-1.2,0.7-1.9,2.1-2.9,3.1c-3.5,4.6-6.9,9-10.41,13.5c-1.5,2.1-3.1,4.1-4.6,6.2c-0.1,0-0.3,0.1-0.3,0.1
		c-0.1,0.1-0.1,0.1-0.3,0.3c-0.1,0-0.3,0.1-0.6,0.4c-5.1,3.5-10.01,7.8-14.71,12c-0.6,0.6-1.3,1-1.8,1.5c0,0-0.1,0-0.1,0.1l0,0
		c-0.3,0.1-0.4,0.3-0.6,0.4c-1.2,0-2.3,0-3.5,0c-1.3-0.3-2.8-0.4-4.1,0c-0.1,0-0.3,0-0.3,0.1c-0.3,0-0.4,0-0.7,0l-0.1-0.1
		c-0.9-1.8-2.9-2.2-4.8-2.5c-3.4-0.6-3.8-1-8.5-2.2c-3.5-1-6.2-1.6-8.4-2.1c-0.6-0.1-1-0.4-1.6-0.6c0.1-2.8-0.4-5.4-2.1-7.8
		c-1.2-1.6-6.2-4.6-10.61-7.2c-2.8-3.4-5.7-6.5-8.8-9.5c-0.1-0.3-0.4-0.6-0.6-0.9c0,0,0-0.1,0.1-0.1c2.5-5.4,0.1-11-1.6-16.3
		c-0.4-5.3-0.9-10.4-2.1-15.6c1.3-1.6,2.6-3.2,3.8-4.8c0.3-0.3,0.4-0.6,0.7-1c0.4-0.4,0.7-0.9,1.2-1.5c1.9-1,3.8-2.5,5.4-3.7
		c4.1-3.1,7.8-6.8,11.01-10.7c1.8-2.1,3.4-4.3,5-6.5c2.1-1,4.3-2.1,6.5-2.9c0.9,0.6,2.1,0.7,3.1,0.9c2.9,1.9,6.8,2.6,10.01,3.4
		c6.6,1,13.21,0.6,19.81,0.6c2.8,3.7,8.2,9.2,11.71,8.2c1.2,1.8,2.5,3.4,3.8,5c3.1,3.5,6.3,6.8,9.01,7.5c1,2.8,2.1,5.6,3.2,8.4
		c-1,6.3-0.3,12.9,0,19.4c0,0.3,0.1,0.9,0.1,1.5C363.94,265.6,363.94,266.7,363.84,267.9z"/>
	<path class="st0" d="M532.04,102.7c-0.1-0.4-0.1-0.7-0.3-1.2c-0.3-2.3-0.6-4.7-1.2-7c0-0.4,0-0.9,0-1.5c0-0.1,0-0.4,0-0.6l0,0
		c0-0.9-0.1-1.9-0.3-2.8c-0.1-0.9-0.4-1.9-0.9-2.6c-0.1-3.8-2.6-6.6-4.8-9.7c-1.9-2.8-3.8-5.7-5.9-8.4c-1.3-1.5-2.8-3.2-4.8-3.5
		c0,0,0,0-0.1,0c-0.6-0.6-1.2-1.2-1.8-1.8c-2.2-2.3-4.8-5-6.8-7c-0.4-0.4-1.8-1.6-2.5-2.1c-0.1-0.1-0.1-0.1-0.3-0.3
		c-0.6-0.6-1.5-1.3-2.3-1c-1.5-1.2-2.8-2.3-4.3-3.5c-1.8-1.6-3.2-0.9-4.1,0.7l0,0c-0.3-0.9-0.6-1.6-1-2.3c-0.4-0.9-1.3-1.5-2.2-1.8
		c-3.1-1.2-6.5-1-9.81-1c-0.6-0.1-1-0.4-1.6-0.6c-0.9-0.3-1.9-0.9-2.8-1.2c-0.1-0.1-0.3-0.3-0.4-0.4l0.4,0.4l0,0
		c-1.5-1.2-2.8-2.9-4.7-3.2c-2.2,0.6-3.2,2.6-3.7,5c-0.3,0-0.6,0-1,0c-0.6-1.2-1.5-2.1-2.6-2.3c-1.3,0.1-2.8,0.6-4.1,0.9
		c-1.5,0.3-2.8,0.7-4.3,1c-2.2-0.4-4.4-1-6.6-0.3c-0.7,0.6-1.3,1.3-1.8,2.2c-0.3,0-0.6,0-0.9,0.1c-1.8,0.1-3.5,0-5.1,0.6
		c-0.7,0.4-1.3,1.2-1.6,1.9c-2.1,1.2-4,2.5-5.7,4.1c0,0-0.1,0-0.1,0.1c0,0-0.1,0-0.1,0.1c-0.7,0.3-1.3,0.6-2.1,0.7
		c-4.3,1.5-8.5,2.5-12.61,4.1c-1.8,0.6-3.5,1.5-4.3,3.2c-0.7,1.5-1,3.2-1,4.8c-0.9,1.2-1.3,2.6-1.6,4.3c-0.9-0.1-1.9,0.3-2.8,1.8
		c-4,5-5.6,11.3-7.2,17.3c-1.2,2.5-2.5,5.1-3.7,7.8c-0.9,1.9-1.5,3.8-1.9,5.9c-0.7,2.9-0.7,6.2,0.6,9c0.3,0.6,0.7,1.2,1.3,1.6
		c0,0.3,0,0.4,0,0.7c-0.1,0.7-0.1,1.5-0.1,2.2c0,1.6,0.1,3.8,0.9,5.4c0,4.6,0.3,9,0.9,13.5c0,2.9,0.4,5.7,1.8,7.3c0,0.6,0,1.2,0,1.9
		c0,0.1,0,0.4,0,0.6c0,1.2,0.1,2.9,0.7,4.4c0,0,0,0.1,0.1,0.1c0.1,0.1,0.1,0.4,0.3,0.6l0,0c0.4,1,1.2,1.8,2.2,1.9l0,0
		c0.1,0,0.1,0,0.3,0c0.1,0,0.1,0,0.3,0c0.3,0,0.4,0,0.7-0.1l0.1-0.1c0.4,0.1,0.7,0.1,1.2,0.1c0.3,0.6,0.7,1.2,1,1.8
		c0.4,1.8,1.2,3.5,2.1,4.7c1.8,1.8,3.5,3.7,5.4,5.3l0.1,0.1c0.1,0.3,0.3,0.6,0.4,0.9c0.6,1.3,1.8,2.6,2.9,2.9
		c1.2,2.3,2.9,4.4,4.8,6.2c2.9,2.8,13.41,13.4,17.31,10c0.3-0.3,0.6-0.7,0.9-1.2c0.4,1.3,1.2,2.5,2.2,3.4c1.8,0.6,3.7,1,5.4,1.3
		c7.8,1.2,15.91,1.6,23.81,1c2.1-0.4,3.4-1.8,4.4-3.4c0.1,0,0.1,0,0.3,0c0.9,0,1.9,0,2.8,0h0.1c0.1,0,0.4,0,0.6,0l0,0
		c0.3,0,0.7-0.1,1-0.3c0.3,0,0.4,0,0.7,0c1.6,0,3.2,0,4.8,0c0.4,1,1.2,1.9,2.1,2.6c1,0.7,2.3,0.1,3.4-0.1c3.5-1,6.5-3.5,9.41-5.7
		c4.1-3.2,10.31-9.2,15.01-14.1c0.7-0.6,1.5-1.3,2.2-2.1c2.1-2.3,5.1-4.1,6.3-7c0.6-1.6,0.9-3.5,0.7-5.4c0.4-0.6,0.9-1.3,1.2-2.2
		c0.9-0.7,1.6-1.6,1.9-2.6c0.7-1.3,1-4.3,0.6-6.9c0.3-0.1,0.4-0.4,0.7-0.7c1.6-2.5,2.3-5.4,2.6-8.4
		C537.64,128,532.94,109.5,532.04,102.7z M514.23,125.2c-5.3,6.9-8.7,15-12.91,22.5c-1.3,2.6-2.6,5.1-3.8,7.8
		c-5.7,4.1-11.91,9-16.91,12.2c-0.1,0-0.4,0.1-0.6,0.1c-0.3,0-0.7,0-1,0.1c-2.9,0.4-6,1-9.01,1.8c-0.1,0-0.3-0.1-0.4-0.1
		c-6-2.3-12.21-4.6-18.61-5.3c-1.9-0.3-3.8-0.4-5.6-0.6c-0.1-0.1-0.4-0.1-0.7-0.3c-0.1,0-0.3,0.1-0.4,0.1c-1.5-0.1-2.9-0.3-4.6-0.4
		c-2.9-1.6-6-3.2-9.11-4.6c-0.3-0.3-0.4-0.7-0.7-1c-4-5.9-8.4-11.6-13.11-17c-1.5-1.8-2.8-3.4-4.1-4.4c0-0.4,0.1-1,0.1-1.5
		c0.1-0.3,0-0.3,0-0.3c0-0.4,0.1-0.9,0-1c0-2.2,0-4.3,0-6.5c-0.1-2.6-0.3-6.6-0.3-10.4c0.3,1.3,0.7,2.6,1,4.1
		c-0.3,0-0.4,0.1-0.6,0.7c-0.1,0.6,0.3,0,0.6-0.3c0.6,2.1,1,4.3,1.5,6.3c0.1,0.6,0.1,1,0.3,1.6c0,0.7,0.1,1.5,0.3,2.1
		c0.3,1,1,0.6,1-0.3c-0.1-6.5-1.6-12.8-2.5-19.2c-0.4-2.9-0.7-6-1.5-9c0.1,0.4,0-0.4-0.4-1.5c1-2.5,2.3-5.4,3.7-8.4
		c1.9-2.3,4-4.8,6.3-7.5c1.6-1.6,3.2-3.2,4.8-5c5-4.7,7.5-7.2,12.21-10.7c0.9-0.7,5.3-4.4,3.1-2.6c0.9-0.9,2.1-1.3,2.6-2.3
		c0.1-0.3,0.3-0.6,0.4-0.9c0.7,0,1.6,0.1,2.5,0.3c9.01,0.9,17.91,0.1,26.71,0l0,0l0,0c1-0.3,1.9-1,2.5-1.9c2.1,1.6,4.3,3.1,6.5,4.4
		c-0.1,1,0,2.2,0,3.2c0.1,1.6,0.7,3.2,1.8,4.6c0.4,0.6,1,0.9,1.6,1c3.5,2.6,11.31,8.7,17.81,11.9c0.3,0.3,0.6,0.6,1,0.7
		c0.6,0.6,1.3,1,1.9,1.6c0,1.9,0.4,3.7,0.9,5.4c0.4,2.2,1,4.3,1.5,6.3c0.4,1.6,0.9,3.1,1.3,4.7c1,4.1,2.1,8.2,3.1,12.3
		c0.6,1.9,1.2,4,1.9,5.9C515.73,124,514.93,124.3,514.23,125.2z"/>
</g>
<g id="Layer_1">
	<g>
		<g id="svg_1" transform="translate(0 1024) scale(0.1 -0.1)">
			<path id="svg_2" class="st1" d="M4738.45,10228.83c-318.78-38.2-603.74-114.5-859.38-229
				c-239.43-107.2-349.59-170.3-565.62-325.91c-426.04-309.8-747.72-695.91-978.35-1176.02
				c-223.32-464.01-311.47-895.61-295.26-1431.52c8.8-280.4,27.92-431.71,89.65-682.71
				c165.99-676.91,589.13-1308.22,1154.64-1719.32c367.3-268.7,885.79-483.01,1307.43-540.31c661.07-92.5,1273.71,4.4,1839.23,290.7
				c260.04,130.7,352.6,193.8,346.69,232c-10.31,70.5-45.53,64.6-196.81-27.9c-204.21-124.8-299.67-170.3-515.59-243.7
				c-421.63-145.4-813.85-202.6-1181.16-173.3c-658.17,52.9-1214.88,277.5-1707.05,687.11c-143.98,120.4-365.8,367.1-478.87,533.01
				c-311.47,453.71-452.45,817.81-515.59,1322.92c-86.65,703.31,29.42,1333.22,348.19,1888.13
				c165.99,290.7,428.94,607.81,666.97,806.11c329.08,274.6,771.23,497.71,1201.67,607.81c490.67,124.8,1163.45,89.6,1610.1-83.7
				c473.06-185,881.39-461.01,1166.45-789.91c248.24-287.8,349.59-443.41,508.28-773.81c89.65-190.9,114.56-271.6,107.26-364.1
				c-4.4-61.7-7.3-66.1-49.93-70.5c-33.82-2.9-66.14,11.7-136.58,63.1c-51.43,38.2-135.18,88.1-185.1,111.6
				c-179.2,82.2-371.71,44-423.04-85.2c-58.73-149.8-41.12-268.7,71.94-503.61c64.64-132.1,79.34-151.2,304.07-372.9
				c130.77-127.7,290.86-274.6,357-325.9c188-146.8,232.13-233.4,233.53-456.61c0-176.2,25.01-136.5,33.82,57.3
				c10.31,215.8-7.3,245.2-365.8,599.01c-456.85,452.21-528.9,557.91-539.1,803.11c-5.9,127.7-4.4,136.5,30.82,171.8
				c20.61,20.6,54.33,41.1,73.44,47c80.85,19.1,236.53-52.9,431.94-201.1c129.27-98.4,270.35-60.2,290.86,80.8
				c25.01,165.9-161.59,618.11-404.03,979.31c-458.36,679.81-1132.63,1110.02-1990.51,1268.52
				C5396.51,10225.83,4861.81,10243.43,4738.45,10228.83z"/>
			<path id="svg_3" class="st1" d="M4474,9854.42c-139.58-23.5-276.15-102.8-392.22-223.2
				c-165.99-174.7-235.03-362.71-220.32-597.61c16.21-237.9,92.55-405.21,255.64-559.41c148.38-140.9,311.47-204.1,530.3-204.1
				c223.32,0,417.23,86.6,570.02,255.5c143.98,157.1,196.81,303.9,198.31,538.81c0,155.6-29.42,271.6-99.86,395.01
				c-114.56,196.7-248.24,311.3-426.04,367.11C4776.57,9861.72,4587.06,9874.92,4474,9854.42z M4845.71,9731.02
				c152.79-51.4,324.68-195.3,390.72-328.9c120.47-240.8,110.16-469.81-30.82-713.61c-83.75-140.9-176.3-215.8-349.59-277.5
				c-296.77-107.2-636.06,16.2-791.84,286.3c-66.14,116-94.05,221.7-92.55,365.61c0,149.8,33.82,251.1,130.77,399.41
				c99.86,152.7,198.31,217.3,423.04,277.5C4635.59,9769.22,4741.35,9766.32,4845.71,9731.02z"/>
			<path id="svg_4" class="st1" d="M4501.91,9631.22c-160.09-45.5-345.19-221.7-389.32-371.5c-26.41-89.6-30.82-314.21-7.3-396.41
				c22.01-82.2,140.98-234.9,226.23-295.1c239.43-163,565.62-102.8,741.91,135.1c95.45,129.2,118.97,185,129.27,299.5
				c23.51,254-152.79,547.61-365.8,609.31C4720.84,9644.42,4579.76,9651.72,4501.91,9631.22z M4595.97,9315.51
				c35.22-60.2,22.01-124.8-35.22-168.8c-35.22-25-45.53-26.4-92.55-10.3c-61.73,20.6-88.15,60.2-85.25,132.1
				c2.9,70.5,47.03,105.7,126.37,99.8C4557.75,9364.02,4572.45,9355.22,4595.97,9315.51z M4900.04,9312.61
				c41.12-22,58.73-89.6,36.72-142.4c-33.82-79.3-120.47-102.8-185.1-49.9c-44.02,35.2-48.53,130.7-7.3,176.2
				C4775.17,9330.22,4853.01,9337.52,4900.04,9312.61z M4529.83,8989.61c32.32-30.8,38.22-52.9,32.32-110.1
				c-4.4-38.2-25.01-63.1-71.94-86.6c-116.06-58.7-218.92,96.9-126.37,189.4C4407.86,9027.71,4484.3,9030.71,4529.83,8989.61z
				 M4885.33,8945.51c29.42-29.4,39.62-104.2,20.61-154.2c-11.71-27.9-80.85-66.1-123.37-66.1c-89.65,0-139.58,155.6-70.54,220.2
				C4754.56,8985.21,4845.71,8985.21,4885.33,8945.51z"/>
			<path id="svg_5" class="st1" d="M6166.34,9201.01c-27.92-170.3-80.84-236.4-220.32-281.9c-41.12-14.7-74.94-30.8-74.94-39.6
				c1.5-7.3,33.82-22,71.94-30.8c135.18-30.8,177.8-77.8,229.13-254l32.32-111.6l10.31,58.7c29.42,173.3,95.45,283.4,192.41,318.6
				c51.43,17.6,67.54,41.1,27.92,41.1c-32.32,0-133.67,70.5-160.09,108.6c-27.92,42.6-67.54,179.1-67.54,230.5
				C6207.47,9319.92,6182.45,9295.01,6166.34,9201.01z"/>
			<path id="svg_6" class="st1" d="M3257.62,8938.21c-39.62-27.9-61.73-104.2-44.02-152.7c45.53-124.8,232.13-85.2,236.53,48.5
				C3453.03,8933.81,3339.87,8995.41,3257.62,8938.21z"/>
			<path id="svg_7" class="st1" d="M2974.06,8396.4c-102.86-27.9-189.51-85.2-295.26-198.2
				c-171.9-180.6-239.43-381.71-205.71-616.71c25.01-173.3,94.05-314.2,211.52-430.21c352.6-345,865.28-255.5,1095.91,190.9
				c67.54,129.2,91.05,227.6,91.05,368.5c0,126.3-30.82,227.6-107.26,356.8c-102.86,171.8-262.95,293.6-440.75,334.8
				C3240.01,8421.4,3056.41,8418.4,2974.06,8396.4z M3320.76,8292.2c99.86-26.4,258.54-126.3,318.78-204.1
				c146.88-185,167.49-475.71,52.93-712.11c-60.23-124.8-149.88-211.4-284.96-276c-105.76-49.9-113.16-51.4-245.34-45.5
				c-261.45,13.2-409.83,111.6-525.89,345c-49.93,102.8-63.14,143.9-69.04,230.5c-11.71,185,57.33,375.91,182.2,499.21
				c74.94,76.3,118.97,101.3,248.24,149.8C3103.33,8318.6,3203.29,8321.5,3320.76,8292.2z"/>
			<path id="svg_8" class="st1" d="M3082.82,8195.3c-174.8-32.3-345.19-198.2-392.22-384.71c-27.92-105.7-11.71-265.7,35.22-367.1
				c41.12-86.6,164.49-201.1,276.15-255.5c110.16-54.3,242.44-57.3,339.39-5.9c105.76,54.3,215.92,170.3,273.25,284.8
				c44.02,88.1,51.43,116,51.43,208.5c0,170.3-55.83,299.5-179.2,412.61C3385.39,8182,3234.11,8221.7,3082.82,8195.3z
				 M3090.13,7923.6c47.03-32.3,44.02-111.6-5.9-151.2c-51.43-39.6-101.36-39.6-129.27,1.5c-49.93,70.5-11.71,173.3,61.73,173.3
				C3038.7,7947.1,3072.52,7936.9,3090.13,7923.6z M3398.6,7914.8c10.31-10.3,17.61-42.6,17.61-71.9c0-98.4-114.56-146.8-171.9-74.9
				c-26.41,32.3-23.51,105.7,5.9,138C3278.23,7936.9,3370.78,7942.7,3398.6,7914.8z M3068.11,7607.99
				c44.02-23.5,54.33-41.1,54.33-96.9c0-52.9-55.83-107.2-110.16-107.2c-47.03,0-94.05,44-104.26,98.4
				c-7.3,38.2-1.5,54.3,27.92,83.7C2977.06,7627.09,3018.19,7634.39,3068.11,7607.99z M3397.2,7602.09
				c39.62-27.9,51.43-92.5,25.01-142.4c-39.62-76.3-148.38-73.4-186.6,4.4C3185.68,7569.79,3301.65,7669.59,3397.2,7602.09z"/>
			<path id="svg_9" class="st1" d="M4447.58,7784.19c-23.51-101.3-64.64-152.7-142.48-183.5c-64.64-25-86.65-49.9-44.02-49.9
				c13.21,0,48.53-13.2,79.34-29.4c61.73-30.8,96.95-89.6,113.16-187.9c11.71-74.9,29.42-69,41.12,17.6
				c13.21,86.6,61.73,155.6,135.18,193.8l60.23,30.8l-60.23,27.9c-70.54,32.3-123.37,104.2-135.18,185
				C4481.3,7869.3,4466.59,7867.8,4447.58,7784.19z"/>
			<path id="svg_10" class="st1" d="M5862.27,7732.79c-29.42-195.3-85.25-261.3-277.65-328.9c-44.02-16.2-66.14-29.4-52.93-33.8
				c11.71-4.4,58.73-19.1,102.86-32.3c44.02-13.2,99.86-38.2,121.97-54.3c52.93-38.2,111.66-161.5,114.56-239.3
				c1.5-32.3,5.9-74.9,11.71-95.4c10.31-33.8,11.71-33.8,19.11-7.3c5.9,16.2,13.21,63.1,19.11,102.8
				c20.61,154.2,124.87,296.6,238.03,324.5c41.12,10.3,45.53,35.2,5.9,35.2c-126.37,0-265.85,185-265.85,355.3
				C5898.99,7825.29,5873.98,7806.19,5862.27,7732.79z"/>
			<path id="svg_11" class="st1" d="M3350.17,6694.68c-110.16-36.7-185.1-85.2-273.25-174.7
				c-142.48-143.9-204.21-302.5-204.21-524.21c0-201.1,77.84-375.91,230.63-518.31c314.38-290.7,822.66-192.3,1022.47,196.7
				c76.34,149.8,94.05,256.9,70.54,412.61c-41.12,255.5-183.6,455.21-405.43,568.21c-91.05,45.5-114.56,51.4-240.93,54.3
				C3461.83,6712.38,3386.89,6706.48,3350.17,6694.68z M3776.21,6553.78c188-83.7,333.49-324.5,331.99-552.11
				c-1.5-161.5-47.03-273.1-158.69-386.11c-55.83-57.3-123.37-107.2-176.3-132.1c-76.34-35.2-101.36-39.6-239.43-39.6
				c-136.58,1.5-164.49,5.9-239.43,41.1c-208.62,98.4-320.28,284.8-321.68,535.91c-1.5,127.7,39.62,246.7,120.47,359.71
				c66.14,92.5,129.27,136.5,271.75,189.4C3467.74,6608.08,3673.35,6600.78,3776.21,6553.78z"/>
			<path id="svg_12" class="st1" d="M3447.13,6493.58c-127.77-26.4-245.34-123.3-333.49-273.1c-38.22-64.6-42.62-85.2-42.62-196.7
				c1.5-157.1,49.93-274.6,154.29-372.91c111.66-104.2,149.88-118.9,301.17-117.5c111.66,0,143.98,5.9,205.71,38.2
				c96.95,49.9,174.8,130.7,220.32,227.6c76.34,161.5,77.84,306.9,1.5,456.61C3867.26,6427.48,3642.54,6533.18,3447.13,6493.58z
				 M3685.16,6301.17c54.33-25,73.44-77.8,48.53-136.5c-49.93-121.9-185.1-96.9-185.1,32.3c0,55.8,23.51,92.5,73.44,110.1
				c11.71,4.4,23.51,8.8,25.01,8.8C3648.34,6317.37,3666.05,6310.07,3685.16,6301.17z M3422.11,6213.17
				c52.93-42.6,52.93-117.5-1.5-160c-101.36-79.3-224.73,63.1-136.58,158.6C3322.26,6252.77,3372.18,6252.77,3422.11,6213.17z
				 M3774.71,5963.57c70.54-55.8,38.22-174.7-49.93-174.7c-71.94,0-123.37,67.5-101.36,130.7
				C3652.84,5997.27,3711.57,6013.47,3774.71,5963.57z M3453.03,5898.97c44.02-42.6,47.03-94,10.31-140.9
				c-58.73-71.9-179.2-22-179.2,73.4c0,45.5,11.71,64.6,51.43,86.6C3380.99,5944.47,3414.81,5938.57,3453.03,5898.97z"/>
			<path id="svg_13" class="st1" d="M2581.84,6675.58c-25.01-17.6-32.32-36.7-32.32-86.6c0-74.9,35.22-110.1,111.66-110.1
				c58.73,0,94.05,39.6,94.05,107.2C2755.24,6682.98,2661.19,6731.38,2581.84,6675.58z"/>
			<path id="svg_14" class="st1" d="M4866.22,6655.08c-2.9-11.7-14.71-49.9-23.51-83.7c-22.01-79.3-77.84-146.8-133.67-158.6
				c-64.64-14.7-66.14-33.8-2.9-49.9c79.34-22,132.17-83.7,143.98-167.4c5.9-38.2,14.71-73.4,20.61-76.3
				c5.9-2.9,19.11,30.8,29.42,77.8c19.11,86.6,89.65,179.1,138.08,179.1c38.22,0,26.41,19.1-32.32,55.8
				c-69.04,42.6-91.05,76.3-114.56,171.8C4882.43,6644.78,4870.62,6666.78,4866.22,6655.08z"/>
			<path id="svg_15" class="st1" d="M7703,6581.68c-38.22-23.5-132.17-185-420.13-719.41c-145.48-270.2-304.07-559.41-354-643.11
				c-48.53-82.2-89.65-154.2-89.65-157.1c0-4.4-17.61-35.2-38.22-67.5c-86.65-139.5,26.41-51.4,183.6,140.9
				c207.12,252.5,637.56,900.01,775.63,1162.82c79.34,154.2,98.45,242.3,60.23,280.4C7799.95,6599.28,7738.22,6600.78,7703,6581.68z
				 M7748.52,6465.68c29.42-19.1,11.71-74.9-52.93-170.3c-58.73-86.6-60.23-86.6-92.55-66.1c-19.11,11.7-17.61,23.5,7.3,96.9
				C7654.47,6455.38,7697.1,6497.98,7748.52,6465.68z"/>
			<path id="svg_16" class="st1" d="M4631.19,5612.56c-274.75-47-471.56-318.6-446.55-619.61c19.11-229,173.4-417.01,404.02-494.81
				c113.16-38.2,201.21-39.6,307.07-1.5c111.66,38.2,188,94,254.14,183.5c180.7,243.7,163.09,546.21-42.62,772.31
				C4992.59,5580.26,4807.48,5641.97,4631.19,5612.56z M4872.12,5495.16c139.58-55.8,201.21-110.1,257.04-224.6
				c42.62-91,49.93-120.4,49.93-215.8c0-96.9-5.9-124.8-49.93-212.9c-61.73-127.7-108.66-177.7-213.02-224.6
				c-160.09-73.4-348.19-52.9-470.06,51.4c-35.22,29.4-79.34,91-107.26,148.3c-44.02,89.6-48.53,108.6-48.53,237.9
				c1.5,123.3,5.9,149.8,42.62,224.6C4431.38,5477.56,4672.31,5572.96,4872.12,5495.16z"/>
			<path id="svg_17" class="st1" d="M4594.47,5418.76c-61.73-20.6-154.29-110.1-196.81-190.9c-47.03-88.1-47.03-284.8-1.5-371.5
				c48.53-92.5,155.69-171.8,270.35-196.7c145.48-32.3,320.28,60.2,389.32,208.5c39.62,85.2,47.03,245.2,16.21,327.4
				c-25.01,66.1-107.26,158.6-176.3,196.7C4828,5432.06,4670.81,5445.26,4594.47,5418.76z M4911.74,5226.46
				c8.8-7.3,17.61-36.7,17.61-63.1c0-36.7-10.31-55.8-38.22-74.9c-35.22-22-42.62-22-77.84-2.9c-30.82,17.6-38.22,32.3-38.22,79.3
				c0,47,7.3,61.7,35.22,74.9C4845.71,5257.26,4876.52,5252.86,4911.74,5226.46z M4673.81,5208.86
				c51.43-79.3-26.41-170.3-102.86-120.4c-48.53,32.3-60.23,76.3-32.32,120.4C4570.95,5258.76,4641.49,5258.76,4673.81,5208.86z
				 M4885.33,5003.26c80.85-41.1,45.53-168.8-44.02-168.8c-47.03,0-70.54,23.5-82.25,83.7c-7.3,36.7-1.5,49.9,30.82,76.3
				C4838.3,5031.16,4832.4,5031.16,4885.33,5003.26z M4685.52,4968.06c44.02-48.5,14.71-127.7-52.93-152.7
				c-36.72-13.2-99.86,42.6-99.86,88.1C4532.73,4985.66,4632.69,5026.76,4685.52,4968.06z"/>
			<path id="svg_18" class="st1" d="M5812.25,5530.36c-99.86-36.7-171.9-86.6-236.53-168.8c-71.94-91-92.55-164.4-85.25-299.5
				c11.71-220.2,151.28-367.1,383.41-408.21c80.84-13.2,104.26-11.7,196.81,16.2c143.98,44,220.32,105.7,282.06,227.6
				c42.62,83.7,49.93,113.1,51.43,204.1c0,121.9-29.42,199.7-116.06,302.5C6182.45,5525.96,5962.13,5584.76,5812.25,5530.36z
				 M6031.17,5434.96c95.45-22,193.91-91,236.53-163c29.42-51.4,35.22-83.7,35.22-173.3c0-124.8-22.01-179.1-107.26-267.2
				c-140.98-146.8-442.15-123.3-547.91,44c-64.64,102.8-80.85,199.7-49.93,305.4c13.21,47,38.22,104.2,54.33,126.3
				c36.72,52.9,148.38,117.5,223.32,130.7C5962.13,5451.06,5959.23,5451.06,6031.17,5434.96z"/>
			<path id="svg_19" class="st1" d="M5848.97,5340.96c-82.25-22-113.16-54.3-155.69-167.4c-38.22-98.4-29.42-167.4,30.82-249.6
				c61.73-86.6,107.26-111.6,202.71-110.1c246.84,2.9,386.32,254,243.84,440.51C6089.9,5360.06,6004.75,5383.56,5848.97,5340.96z
				 M6131.02,5182.46c11.71-8.8,17.61-38.2,14.71-73.4c-4.4-51.4-10.31-61.7-51.43-77.8c-41.12-17.6-49.93-16.2-83.75,10.3
				c-48.53,38.2-48.53,91-1.5,139.5C6047.38,5219.16,6085.5,5219.16,6131.02,5182.46z M5901.9,5176.56
				c41.12-47,44.02-85.2,10.31-126.3c-33.82-44-79.34-49.9-127.77-16.2c-38.22,26.4-44.02,108.6-8.8,143.9
				C5806.44,5208.86,5873.98,5207.36,5901.9,5176.56z"/>
			<path id="svg_20" class="st1" d="M3705.67,5057.66c-70.54-77.8,17.61-205.6,113.16-161.5c20.61,8.8,44.02,35.2,54.33,58.7
				c14.71,36.7,13.21,48.5-11.71,82.2C3823.24,5086.96,3742.39,5098.76,3705.67,5057.66z"/>
			<path id="svg_21" class="st1" d="M8007.07,3504.24c-114.56-17.6-286.46-70.5-365.8-113.1c-47.03-25-133.67-92.5-191.01-149.8
				c-83.75-83.7-120.47-135.1-174.8-243.7c-94.05-192.3-117.57-293.6-117.57-497.71c0-355.3,129.27-632.81,389.32-832.51
				c208.62-160,614.04-211.4,915.21-116c64.64,20.6,148.38,55.8,185.1,79.3l67.54,44l10.31,129.2c5.9,71.9,11.71,146.8,13.21,167.4
				c2.9,29.4-4.4,38.2-36.72,41.1c-33.82,4.4-44.02-4.4-76.34-66.1c-36.72-74.9-151.29-192.3-223.33-229
				c-123.37-63.1-305.57-73.4-436.34-25c-105.76,39.6-251.24,180.6-308.47,298.1c-74.94,154.2-101.36,289.2-102.86,516.81
				c0,240.8,20.61,349.4,104.26,527.11c66.14,139.5,165.99,249.6,274.75,302.5c86.65,41.1,260.05,55.8,355.5,30.8
				c113.16-30.8,262.95-196.7,299.67-331.8c13.21-44,20.61-51.4,57.33-51.4h44.02v220.2c0,195.3-2.9,220.2-26.42,233.4
				C8596.1,3473.34,8121.63,3521.84,8007.07,3504.24z"/>
			<path id="svg_22" class="st1" d="M4973.48,3477.74c-215.92-70.5-331.98-242.3-351.1-515.31l-8.8-132.1l-96.95-4.4l-98.45-4.4
				l-10.31-52.9c-4.4-27.9-4.4-57.3,2.9-64.6c5.9-5.9,54.33-13.2,107.26-16.2l95.45-4.4l4.4-502.11
				c4.4-547.61,5.9-537.41-82.25-556.51c-85.25-17.6-108.66-33.8-96.95-69c4.4-17.6,10.31-32.3,11.71-32.3c0,0,161.59,1.5,358.4,4.4
				l355.5,4.4v41.1c0,39.6-4.4,42.6-76.34,48.5c-61.73,5.9-83.75,16.2-117.57,54.3l-41.12,45.5v484.51v484.51h168.89h168.89v69v67.5
				l-152.79-8.8c-124.87-8.8-155.69-5.9-170.4,11.7c-13.21,16.2-16.21,77.8-11.71,220.2c5.9,223.2,19.11,255.5,120.47,306.9
				c48.53,23.5,63.14,25,113.16,10.3c60.23-17.6,116.06-85.2,116.06-136.5c0-45.5,89.65-27.9,143.98,27.9
				c11.71,10.3,23.51,47,27.92,77.8c10.31,69-17.61,108.6-94.05,140.9C5301.06,3502.74,5048.42,3502.74,4973.48,3477.74z"/>
			<path id="svg_23" class="st1" d="M867.49,3466.04c-229.13-20.6-318.78-57.3-497.98-201.1c-227.73-183.5-337.89-411.11-357-738.51
				c-29.42-484.51,201.21-866.31,608.14-1005.71c95.45-32.3,146.88-39.6,307.07-45.5c226.23-7.3,376.11,22,525.89,104.2l89.65,49.9
				l16.21,160c16.21,158.6,10.31,196.7-29.42,196.7c-8.8,0-39.62-41.1-67.54-91c-64.64-111.6-155.69-192.3-262.95-233.4
				c-117.57-44-314.38-35.2-420.13,19.1c-351.1,180.6-492.17,688.61-331.99,1196.62c22.01,74.9,58.73,163,79.34,198.2
				c48.53,85.2,146.88,173.3,246.84,224.6c67.54,35.2,96.95,41.1,205.71,42.6c107.26,0,136.58-4.4,208.62-39.6
				c98.45-48.5,157.19-114.5,211.52-240.8c35.22-82.2,45.53-92.5,80.85-92.5h41.12v212.9v212.9l-38.22,14.7
				c-47.03,19.1-274.75,54.3-395.22,63.1C1039.38,3476.34,940.93,3473.34,867.49,3466.04z"/>
			<path id="svg_24" class="st1" d="M6586.48,3386.73c-113.16-60.2-110.16-248.1,2.9-306.9c127.77-66.1,249.74,13.2,249.74,164.4
				c0,69-26.41,110.1-94.05,142.4C6683.43,3416.14,6639.41,3416.14,6586.48,3386.73z"/>
			<path id="svg_25" class="st1" d="M5734.4,3153.33c-44.02-116-126.37-224.6-227.73-296.6c-85.25-60.2-94.05-71.9-89.65-113.1
				s10.31-45.5,58.73-49.9l54.33-4.4l4.4-487.51c4.4-478.61,4.4-488.91,39.62-557.91c41.12-83.7,91.05-121.9,189.51-145.4
				c95.45-22,232.13,10.3,364.3,83.7c98.46,55.8,116.06,86.6,71.94,130.7c-20.61,20.6-30.82,19.1-102.86-8.8
				c-95.45-36.7-163.09-27.9-214.52,26.4l-35.22,38.2l-4.4,459.61l-4.4,461.01l173.4,4.4l173.4,4.4l4.4,63.1l4.4,61.7h-167.29
				c-140.98,0-170.4,4.4-177.8,23.5c-4.4,13.2-8.8,101.3-8.8,198.2v174.7h-41.12C5763.82,3219.33,5755.01,3210.53,5734.4,3153.33z"
				/>
			<path id="svg_26" class="st1" d="M9387.94,2861.13c-302.67-101.3-453.95-321.5-452.45-662.21c0-217.3,61.73-397.91,176.3-515.31
				c113.16-117.5,298.27-174.7,518.59-164.4c312.88,16.2,503.88,170.3,580.32,468.41c30.82,118.9,23.51,381.71-13.21,490.41
				c-58.73,168.8-183.6,299.5-342.29,359.7C9747.84,2878.73,9478.99,2891.93,9387.94,2861.13z M9675.9,2748.03
				c82.25-27.9,139.58-95.4,185.1-217.3c38.22-104.2,41.12-126.3,41.12-339.2c-1.5-201.1-4.4-237.9-33.82-311.3
				c-73.44-181.9-135.17-236.3-280.56-243.6c-98.46-5.9-101.36-5.9-163.09,49.9c-114.56,104.2-164.49,252.5-164.49,497.71
				C9258.67,2607.12,9424.66,2831.73,9675.9,2748.03z"/>
			<path id="svg_27" class="st1" d="M2512.81,2825.93c-33.82-16.2-101.36-73.4-151.28-129.2l-91.05-101.3v114.5
				c0,82.2-5.9,116-20.61,121.9c-10.31,4.4-85.25-8.8-164.49-27.9c-79.34-20.6-170.4-41.1-201.21-47c-49.93-7.3-55.83-13.2-51.43-47
				c2.9-27.9,16.21-42.6,48.53-52.9c99.86-32.3,95.45-10.3,95.45-522.71c0-255.5-5.9-472.81-13.21-483.01
				c-5.9-10.3-44.02-27.9-83.75-38.2c-61.73-14.7-71.94-23.5-76.34-57.3l-4.4-39.6h359.9h361.4v42.6c0,47-20.61,60.2-96.95,60.2
				c-33.82,0-64.64,13.2-96.95,42.6l-47.03,41.1v372.9l-1.5,372.91l44.02,60.2c58.73,80.8,101.36,110.1,168.89,118.9
				c47.03,7.3,63.14,1.5,94.05-30.8c22.01-20.6,42.62-57.3,47.03-82.2c8.8-41.1,14.71-44,71.94-44c60.23,0,64.64,2.9,86.65,60.2
				c14.71,33.8,29.42,101.3,33.82,151.2c7.3,83.7,4.4,92.5-30.82,126.3C2740.53,2856.73,2598.05,2865.53,2512.81,2825.93z"/>
			<path id="svg_28" class="st1" d="M3342.87,2824.43c-130.77-35.2-248.24-99.8-258.54-143.9c-10.31-39.6,5.9-161.5,25.01-198.2
				c10.31-20.6,32.32-26.4,86.65-26.4h71.94l22.01,71.9c30.82,107.2,47.03,130.7,111.66,163c124.87,63.1,261.45,30.8,317.28-74.9
				c23.51-47,54.33-264.3,41.12-298.1c-5.9-13.2-51.43-22-157.19-27.9c-221.82-11.7-365.8-61.7-478.87-165.9
				c-129.27-118.9-170.4-246.7-126.37-397.91c33.82-114.5,71.94-163,160.09-204.1c139.58-64.6,331.99-38.2,477.47,69
				c33.82,23.5,58.73,48.5,54.33,54.3c-2.9,5.9,8.8,13.2,27.92,14.7c26.41,1.5,42.62-13.2,73.44-64.6
				c64.64-110.1,160.09-133.6,333.49-79.3c111.66,33.8,176.3,92.5,158.69,142.4c-11.71,27.9-19.11,29.4-69.04,17.6
				c-79.34-17.6-89.65-16.2-121.97,16.2c-27.92,27.9-29.42,48.5-29.42,389.11c0,208.5-7.3,390.51-16.21,436.11
				c-38.22,179.1-133.67,287.8-279.16,318.6C3657.24,2859.63,3451.53,2853.83,3342.87,2824.43z M3754.2,1987.52
				c0-202.6-10.31-224.6-135.18-286.3c-86.65-44-148.38-48.5-227.73-16.2c-118.97,48.5-161.59,204.1-91.05,330.4
				c57.33,102.8,155.69,143.9,340.79,145.4l113.16,1.5V1987.52z"/>
			<path id="svg_29" class="st1" d="M6570.27,2811.23c-182.2-36.7-188-39.6-183.6-74.9c2.9-25,17.61-39.6,51.43-51.4
				c26.41-8.8,55.83-25,66.14-35.2c25.01-25,36.72-926.51,11.71-970.51c-8.8-17.6-45.53-38.2-85.25-49.9
				c-57.33-17.6-70.54-26.4-73.44-58.7l-4.3-39.7h337.89h339.39v44c0,33.8-5.9,44-29.42,44c-48.53,0-129.27,39.6-145.48,71.9
				c-23.51,44-29.42,186.5-30.82,703.31v458.11l-32.32-1.5C6773.08,2849.33,6673.12,2831.73,6570.27,2811.23z"/>
		</g>
	</g>
</g>
<g id="Layer_3">
</g>
</svg>
